<svg xmlns="http://www.w3.org/2000/svg" viewBox="0 0 362.83 362.83"><g id="レイヤー_2" data-name="レイヤー 2"><g id="Layer"><rect width="362.83" height="362.83" style="fill:#fff"/><path d="M83.65,141.69a.2.2,0,0,0-.39,0c-.09.44-.22,1-.42,1.8l-2.3,9.18a.2.2,0,0,0,.2.24h5.44a.2.2,0,0,0,.19-.24l-2.3-9.18C83.88,142.73,83.74,142.14,83.65,141.69Z" style="fill:#303f9f"/><path d="M109.56,142.18l-.93,0a.74.74,0,0,0-.7.73v8.92a.74.74,0,0,0,.71.73l1.11,0c4.83,0,5-3.4,5-5.44C114.77,142.68,111.8,142.18,109.56,142.18Z" style="fill:#303f9f"/><path d="M133.36,142.18l-.93,0a.73.73,0,0,0-.69.73v8.92a.73.73,0,0,0,.7.73l1.11,0c4.83,0,5-3.4,5-5.44C138.57,142.68,135.6,142.18,133.36,142.18Z" style="fill:#303f9f"/><path d="M160.88,142.33c-3.9,0-5.67,3.17-5.67,10.27s1.73,10.12,5.59,10.12,5.68-3.17,5.68-10.27S164.74,142.33,160.88,142.33Z" style="fill:#303f9f"/><path d="M213.06,142.33c-3.9,0-5.68,3.17-5.68,10.27s1.74,10.12,5.6,10.12,5.68-3.17,5.68-10.27S216.92,142.33,213.06,142.33Z" style="fill:#303f9f"/><path d="M185.3,142.14l-.8,0a.72.72,0,0,0-.7.73v7.53a.72.72,0,0,0,.7.73l1,0a7.38,7.38,0,0,0,2.12-.27c1.62-.38,2.78-1.66,2.78-4.28C190.36,142.87,188.39,142.14,185.3,142.14Z" style="fill:#303f9f"/><path d="M312.08,188.54a9.14,9.14,0,0,0-6.36,2.16l-6.5,22.8s1,1.55,4.63,1.55c6.22,0,9.81-5,12.28-13.66C318,194.76,318.31,188.54,312.08,188.54Z" style="fill:#303f9f"/><path d="M321.6,214.44a.32.32,0,0,0,.4.48c16.28-9.69,25.71-21.18,25.71-33.5,0-34.63-74.45-62.7-166.29-62.7-46.76,0-89,7.27-119.21,19a.38.38,0,0,0,.13.73,17.86,17.86,0,0,1,7,1.12h0s-.08.94-.08,3.13.07,3.4.08,3.54h0c-1.54-2.23-3.47-3.77-6.52-3.77-2.51,0-4.13.69-4.13,2.7,0,1.81,1.32,2.43,3.4,3.59l2.74,1.51c3.36,1.81,5.56,3.82,5.56,8.07,0,6.37-4.59,8.15-10.46,8.15-5,0-7.41-1.16-7.42-1.16h0s.08-.9.08-3-.07-3.58-.08-3.73h0a7.77,7.77,0,0,0,7,3.85c2.58,0,4.67-.58,4.67-3,0-1.93-1.24-2.63-3.09-3.63L57.86,154c-3-1.66-5.4-3.74-5.4-7.72a8,8,0,0,1,1-4.11.37.37,0,0,0-.48-.53c-23.64,10.83-37.85,24.7-37.85,39.83,0,34.63,74.46,62.7,166.3,62.7,51.19,0,97-8.72,127.48-22.44a.16.16,0,0,0-.09-.3,20.25,20.25,0,0,1-3.05.23c-7.24,0-9.21-3.52-9.21-3.52l-12,3.66s1.79-4.13,5.94-18.67l4.86-17c3.34-11.7,3.27-13.6,2.75-15.56l-.28-1.15,14.68-1.69s-2.17,6.9-4,13.33l-.62,2.16a53.54,53.54,0,0,1-2.4,6.76c3.1-5.41,7.2-8.65,14-8.65,4.13,0,14.3,1.08,9.07,19.41C326.84,206.75,324.42,211.22,321.6,214.44ZM213,138.35c8.61,0,13,5,13,13.79,0,7.45-3.47,14.56-12.89,14.56-8.61,0-13-5-13-13.79C200.08,145.46,203.56,138.35,213,138.35Zm-115,27.88c-.17,0-2.17-.07-5.13-.07-2.69,0-4.93.07-5.12.07h0a2.74,2.74,0,0,0,1.22-2.43,27.46,27.46,0,0,0-1.08-5.37l-.31-1.19a.59.59,0,0,0-.56-.43H80a.59.59,0,0,0-.56.43l-.31,1.19A28.21,28.21,0,0,0,78,163.8a2.74,2.74,0,0,0,1.23,2.43h0c-.17,0-1.89-.07-4.36-.07s-4,.07-4.15.07h0c1.43-1.4,2.12-3.79,3.66-9.15L78.9,141a6.1,6.1,0,0,0,.23-1.43,1.09,1.09,0,0,0-.26-.8s0,0,0,0H90.25a1.47,1.47,0,0,0-.23.81,6.09,6.09,0,0,0,.19,1.43l4.21,16.1c1.43,5.4,2.09,7.76,3.51,9.15Zm12.86-10a18.63,18.63,0,0,1-2.85-.23h0c0,7.33.2,8.1,1,9.57l.42.69h0c-.11,0-1.52-.07-4.75-.07s-4.6.07-4.7.07h0l.34-.65c.77-1.43,1-1.74,1-13.33,0-11.23-.15-11.39-1-12.93l-.34-.65h0c.09,0,1.46.08,3.66.08,1.7,0,4.86-.12,6.14-.12,4.44,0,12,.27,12,8.42C121.8,154.88,115.62,156.19,110.79,156.19Zm23.8,0a18.63,18.63,0,0,1-2.85-.23h0c0,7.33.19,8.1,1,9.57l.42.69h0c-.11,0-1.52-.07-4.75-.07s-4.6.07-4.7.07h0l.34-.65c.77-1.43,1-1.74,1-13.33,0-11.23-.16-11.39-1-12.93l-.34-.65h0c.09,0,1.46.08,3.66.08,1.7,0,4.87-.12,6.14-.12,4.44,0,12,.27,12,8.42C145.6,154.88,139.42,156.19,134.59,156.19Zm26.29,10.51c-8.61,0-13-5-13-13.79,0-7.45,3.47-14.56,12.89-14.56,8.62,0,13,5,13,13.79C173.78,159.59,170.3,166.7,160.88,166.7Zm23.88-1.12.35.65h0c-.1,0-1.5-.07-4.51-.07s-4.45.07-4.55.07h0l.34-.65c.77-1.39,1-1.74,1-13.33,0-11.23-.16-11.39-1-12.93l-.34-.65h0c.1,0,1.61.08,3.59.08,1.27,0,4.32-.08,5.59-.08,6.07,0,12,.27,12,7.11,0,5.61-4.21,7.44-7.79,7.56,0,0,0,0,0,0,2.86.4,4.06,1.67,5.67,4.78l2.12,4.14c1.05,1.92,1.7,2.89,3.09,3.51h0c-.06.06-.79.7-3.78.7-3.21,0-4.6-.89-6.45-4.25L188,158.55c-1.78-3.13-2.13-3.94-3.63-3.94a4.26,4.26,0,0,0-.58,0h0C183.8,164,184,164.15,184.76,165.58Zm41.77,55.22c-5.21,0-7.82.13-7.82.13l2-32.32a28.23,28.23,0,0,1,.6-4.74c-.16.34-.86,2.1-2.18,4.81l-16,32.25s-2.6-.13-7.81-.13-8.09.13-8.09.13l1.09-32.25c.29-9.54.09-13.6-1.78-16,0,0,2.8.13,8.82.13,6.49,0,9.64-.13,9.64-.13a6.92,6.92,0,0,0-3.38,4.26c-.68,2.37-.9,6.22-1.33,11.29l-1.69,23c-.14,1.69-.39,3.51-.46,4a36.73,36.73,0,0,1,1.86-3.93l19.07-38.61s2.32.13,6.52.13,6.73-.13,6.73-.13l-2.46,38c-.11,1.83-.43,4.6-.43,4.6s1.16-2.63,2.13-4.6l11.2-22.45c2.53-5.07,4.44-8.92,5.12-11.29s-.24-3.65-.95-4.26c0,0,2.73.13,8,.13s7.68-.13,7.68-.13c-3.2,2.43-5.71,6.49-10.86,16L234.2,220.93S231.87,220.8,226.53,220.8Zm59.54-18.13-.19.68H262.41c-1.85,6.49.13,11.16,7.44,11.16,8.86,0,12.35-3.72,12.65-4.06-1.45,5.07-6.92,11.23-18.69,11.23-7.37,0-17.59-3-12.77-20,3.8-13.33,12.47-20.49,24-20.49C291.72,181.24,288.29,194.9,286.07,202.67Z" style="fill:#303f9f"/><path d="M273.37,187c-4.39,0-7.05,2.91-9.57,11.5l12.47-1.28C278,191.31,278.85,187,273.37,187Z" style="fill:#303f9f"/><path d="M235.13,161.25l.14-.47c.45-1.36.89-2.73,1.34-4.09l1-3.07c0-.07,0-.11,0-.16l-3.48-2.52-2.93-2.13a.16.16,0,0,1-.07-.07h8c.15,0,.15,0,.2-.14.44-1.36.88-2.72,1.33-4.08.36-1.13.73-2.25,1.09-3.38a.38.38,0,0,1,.05-.12.2.2,0,0,1,.06.12c.51,1.56,1,3.13,1.52,4.69l.9,2.77c.05.14.05.14.2.14h7.85a.21.21,0,0,1,.13,0l-.26.19q-2.15,1.58-4.31,3.13l-1.93,1.4c-.06.05-.06.08,0,.15l.87,2.67c.52,1.63,1.05,3.25,1.58,4.88,0,0,0,.05,0,.08s0,0-.07,0l-3.32-2.42-3.1-2.25a.14.14,0,0,0-.17,0c-.92.68-1.85,1.35-2.78,2l-3.63,2.64S235.18,161.26,235.13,161.25Z" style="fill:#fea900"/></g></g></svg>