<svg xmlns="http://www.w3.org/2000/svg" viewBox="0 0 1027.79 387.53"><defs><style>.cls-1{fill:#00907d;}.cls-2{fill:#fea900;}</style></defs><title>figure_アセット 2</title><g id="レイヤー_2" data-name="レイヤー 2"><g id="Service"><path class="cls-1" d="M365.38,72.5c-1.09,0-2.07,0-2.87.07a2.26,2.26,0,0,0-2.14,2.27v27.55a2.27,2.27,0,0,0,2.18,2.27c.82,0,1.94.06,3.43.06,14.91,0,15.51-10.51,15.51-16.83C381.49,74.05,372.3,72.5,365.38,72.5Z"/><path class="cls-1" d="M450.43,73c-12.05,0-17.54,9.79-17.54,31.75S438.26,136,450.19,136s17.55-9.78,17.55-31.74S462.37,73,450.43,73Z"/><path class="cls-1" d="M211.75,71a.61.61,0,0,0-1.19,0c-.28,1.36-.7,3.18-1.3,5.57l-7.09,28.36a.61.61,0,0,0,.59.76h16.81a.61.61,0,0,0,.59-.76l-7.09-28.36C212.48,74.22,212.05,72.37,211.75,71Z"/><path class="cls-1" d="M291.82,72.5c-1.08,0-2.07,0-2.87.07a2.27,2.27,0,0,0-2.14,2.27v27.55a2.27,2.27,0,0,0,2.18,2.27c.82,0,1.94.06,3.43.06,14.91,0,15.51-10.51,15.51-16.83C307.93,74.05,298.74,72.5,291.82,72.5Z"/><path class="cls-1" d="M611.67,73c-12,0-17.54,9.79-17.54,31.75S599.5,136,611.43,136,629,126.2,629,104.24,623.6,73,611.67,73Z"/><path class="cls-1" d="M525.9,72.38c-1,0-1.82,0-2.49.05a2.27,2.27,0,0,0-2.16,2.27V98a2.26,2.26,0,0,0,2.16,2.27c.76,0,1.74.06,3,.06a23.41,23.41,0,0,0,6.56-.84c5-1.19,8.59-5.13,8.59-13.24C541.53,74.64,535.45,72.38,525.9,72.38Z"/><path class="cls-1" d="M436.85,211c-13.58,0-21.79,9-29.57,35.53l38.54-4C451,224.34,453.78,211,436.85,211Z"/><path class="cls-1" d="M513.89,0c-144.48,0-275,22.48-368.39,58.67a1.17,1.17,0,0,0,.42,2.25c14.19,0,21.59,3.46,21.59,3.46h0s-.23,2.89-.23,9.67c0,6.62.21,10.5.23,10.93,0,0,0,0,0,0-4.77-6.9-10.73-11.66-20.15-11.66-7.75,0-12.76,2.15-12.76,8.35,0,5.61,4.06,7.52,10.5,11.1l8.47,4.66c10.38,5.61,17.18,11.81,17.18,24.94,0,19.69-14.2,25.18-32.34,25.18-15.38,0-22.9-3.58-22.91-3.58h0s.24-2.76.24-9.31c0-6.77-.21-11.09-.24-11.54h0c4.17,6.07,9.9,11.9,21.45,11.9,8,0,14.44-1.79,14.44-9.43,0-6-3.82-8.12-9.54-11.22l-9.79-5.49c-9.31-5.13-16.71-11.57-16.71-23.86a24.7,24.7,0,0,1,3.06-12.7A1.15,1.15,0,0,0,117,70.69C43.89,104.16,0,147,0,193.76c0,107,230.08,193.77,513.89,193.77,155.94,0,295.65-26.19,389.89-67.54a1.1,1.1,0,0,0-.35-2.11c-21.62-2-46-14.25-32.54-61.35,11.75-41.17,38.55-63.33,74.08-63.33,51.62,0,41,42.22,34.19,66.25l-.6,2.09H906c-5.73,20.07.4,34.49,23,34.49h.46a71.45,71.45,0,0,0,41.92-13.93c36.05-26.49,56.4-56.52,56.4-88.34C1027.79,86.75,797.71,0,513.89,0ZM740.17,167.5c3.52-12.33,13.67-15.68,25.79-15.68,11.92,0,20.64,3.14,17.24,15.05-3.52,12.33-13.46,15.68-25.79,15.68C745.5,182.55,736.78,179.41,740.17,167.5ZM611.43,60.68c26.61,0,40.1,15.52,40.1,42.6,0,23-10.74,45-39.86,45-26.61,0-40.09-15.51-40.09-42.6C571.58,82.64,582.31,60.68,611.43,60.68Zm-113.1,3-1.06-2s0,0,0,0c.32,0,5,.23,11.09.23,3.93,0,13.36-.23,17.3-.23,18.74,0,37.11.83,37.11,22,0,17.35-13,23-24.08,23.39,0,0,0,0,0,0,8.85,1.22,12.53,5.17,17.52,14.78l6.56,12.77c3.22,6,5.25,8.94,9.53,10.85,0,0,0,0,0,0-.19.18-2.45,2.14-11.69,2.14-9.9,0-14.2-2.75-19.92-13.13l-6.45-11.34c-5.49-9.66-6.56-12.17-11.21-12.17a12,12,0,0,0-1.79.12s0,0,0,0c0,28.75.59,29.35,3,33.76l1.06,2s0,0,0,0c-.31,0-4.64-.24-13.94-.24s-13.75.22-14.06.24c0,0,0,0,0,0l1.06-2c2.39-4.29,3-5.37,3-41.17C501.31,68.92,500.84,68.44,498.33,63.66Zm-48.14-3c26.62,0,40.1,15.52,40.1,42.6,0,23-10.74,45-39.86,45-26.61,0-40.09-15.51-40.09-42.6C410.34,82.64,421.08,60.68,450.19,60.68Zm-113.45,3-1.06-2s0,0,0,0c.28,0,4.52.23,11.32.23,5.25,0,15-.35,19-.35,13.72,0,37.23.83,37.23,26,0,24.23-19.1,28.29-34,28.29a57.34,57.34,0,0,1-8.83-.72v0c0,22.65.59,25,3.22,29.57l1.3,2.13s0,0,0,0c-.34,0-4.7-.24-14.66-.24s-14.22.22-14.54.24c0,0,0,0,0,0l1.06-2c2.39-4.41,3-5.37,3-41.17C339.72,68.92,339.24,68.44,336.74,63.66Zm-73.56,0-1.06-2s0,0,0,0c.29,0,4.53.23,11.32.23,5.25,0,15-.35,19-.35,13.72,0,37.23.83,37.23,26,0,24.23-19.09,28.29-34,28.29a57,57,0,0,1-8.82-.72s0,0,0,0c0,22.65.6,25,3.22,29.57l1.3,2.13s0,0,0,0c-.34,0-4.69-.24-14.65-.24s-14.23.22-14.54.24c0,0,0,0,0,0l1.06-2c2.39-4.41,3-5.37,3-41.17C266.17,68.92,265.69,68.44,263.18,63.66Zm-39,83.18s0,0,0,0a8.43,8.43,0,0,0,3.79-7.5c0-3.7-1.55-9.54-3.34-16.58l-1-3.68a1.8,1.8,0,0,0-1.73-1.34H200.37a1.8,1.8,0,0,0-1.73,1.34l-1,3.68c-1.79,7-3.46,12.88-3.46,16.58a8.43,8.43,0,0,0,3.78,7.5s0,0,0,0c-.5,0-5.84-.24-13.45-.24-7.82,0-12.41.22-12.85.24,0,0,0,0,0,0,4.4-4.3,6.55-11.7,11.31-28.26L197.08,68.8a18,18,0,0,0,.72-4.42,3.42,3.42,0,0,0-.82-2.49s0,0,0,0h35.16l0,0a4.26,4.26,0,0,0-.72,2.49,17.92,17.92,0,0,0,.6,4.42l13,49.76c4.41,16.68,6.44,24,10.84,28.26,0,0,0,0,0,0-.51,0-6.69-.24-15.84-.24C231.71,146.6,224.8,146.82,224.21,146.84Zm101.25,74.37L338,229.36c15.38,9.82,24.2,20.69,17.64,43.68-9.84,34.48-37.45,44.1-69.22,44.1-27,0-38.34-6.27-38.34-6.27s1.79-4.81,5.07-16.3c3.58-12.54,5.36-20.28,5.36-20.28,4.28,10.66,11.39,20.9,31.66,20.9,14,0,26.19-3.13,30-16.51,3-10.45-2.63-14.21-11.11-19.64l-14.4-9.62c-13.74-9-23.48-20.27-17.34-41.8,8-28.21,30.65-42.21,65.55-42.21,24.87,0,36.1,6.06,36.1,6.06s-1.85,5-5.25,16.93c-3.51,12.33-5.06,19.22-5.06,19.22-4.9-12.12-13-20.48-29.48-20.48-13.59,0-23.44,3.77-26.54,14.63C309.81,211.6,316,214.94,325.46,221.21Zm81.85,97c-22.78,0-54.37-9.4-39.47-61.65,11.75-41.17,38.55-63.33,74.08-63.33,51.62,0,41,42.22,34.19,66.25l-.6,2.09H403c-5.73,20.07.4,34.49,23,34.49,27.38,0,38.18-11.5,39.11-12.54C460.6,299.16,443.68,318.18,407.31,318.18ZM578.58,214.52c-4,14-5.12,19.44-5.12,19.44-3.8-9.41-12.28-11.92-20.22-11.92C538,222,532,230.61,532,230.61L523.87,259c-13.05,45.77-11.17,47.23-9.5,53.08l1.23,3.76s-8-.42-25.8-.42-25.2.42-25.2.42l2.9-3.55c5.07-6.06,7.43-7.73,20.43-53.29l2.38-8.36c10.32-36.16,10.1-42,8.49-48.07l-.87-3.55,43.71-5.23-11.12,35.32c13.72-32,30.8-36.16,40.2-36.16,10.87,0,13.35,3.77,13.35,3.77S582.16,202,578.58,214.52ZM646,315.88s-8.66-.42-25-.42c-15.88,0-25.2.42-25.2.42l.12-71.47c0-29.89.28-42-5-49.12,0,0,6.57.42,26.22.42,20.69,0,27.91-.42,27.91-.42a20.86,20.86,0,0,0-10,13c-1.91,6.69-2.41,18-2.79,34.69l-1.15,42.85C631,291,630,297.91,629.94,299c.45-.83,3.61-7.52,6.68-13.16L660,243.57c9.49-17.14,15.43-28.42,17.39-35.32,2.15-7.52-.39-11.08-2.57-13,0,0,7.61.42,23.71.42,15.67,0,22.69-.42,22.69-.42-9.61,7.32-17.31,21.11-33.39,48.91ZM753.56,259c-11,38.66-12,44.93-10,53.29l.87,3.55s-7.2-.42-25-.42-25.2.42-25.2.42l2.89-3.55c5.41-6.48,7.79-9,20.43-53.29l2.39-8.36c10.31-36.16,10.1-42,8.49-48.07l-.87-3.55L774,193.83s-5.22,11.7-18,56.64Zm117.68-41.8c-3.1,10.87-5.37,20.27-5.37,20.27-6.1-19.65-12.94-22.78-23.6-22.78-19.43,0-31.64,15.68-38.67,40.34-6.14,21.52-5.66,40.33,18.38,40.33,21.31,0,31.91-11.49,32.83-12.54-4.53,15.89-20.94,35.32-52.71,35.32-38.24,0-47.06-25.5-37.23-60,10.26-35.95,34.85-65,77.48-65,26.13,0,33.84,8.15,33.84,8.15S874.28,206.58,871.24,217.24Z"/><path class="cls-1" d="M939.9,211c-13.58,0-21.79,9-29.57,35.53l38.55-4C954.06,224.34,956.83,211,939.9,211Z"/><path class="cls-2" d="M679.87,131.44c.16-.5.3-1,.46-1.44q2.05-6.33,4.12-12.65,1.53-4.74,3.07-9.47a.37.37,0,0,0-.17-.5l-10.74-7.8L667.54,93a.5.5,0,0,1-.21-.2.71.71,0,0,1,.35,0H692c.46,0,.46,0,.6-.44l4.11-12.63,3.39-10.41a.79.79,0,0,1,.15-.37c.13.09.14.23.18.35q2.36,7.26,4.7,14.5c.93,2.85,1.85,5.7,2.78,8.55.15.45.14.45.63.45h24.26a.69.69,0,0,1,.39,0l-.8.6L719,103.08l-6,4.33a.32.32,0,0,0-.13.44c.9,2.75,1.79,5.51,2.68,8.26q2.46,7.55,4.9,15.08c0,.08.08.16,0,.26s-.15-.06-.21-.1l-10.27-7.47-9.58-7a.36.36,0,0,0-.51,0l-8.59,6.25-11.23,8.16A.35.35,0,0,1,679.87,131.44Z"/></g></g></svg>