<svg id="Layer" xmlns="http://www.w3.org/2000/svg" viewBox="0 0 362.83 362.83"><defs><style>.cls-1{fill:#dc0000;}.cls-2{fill:#fea900;}</style></defs><title>figure_アートボード 11</title><path class="cls-1" d="M132.26,141.28c-.35,0-.68,0-.95,0a.75.75,0,0,0-.7.75v9.12a.75.75,0,0,0,.72.75l1.13,0c4.94,0,5.14-3.48,5.14-5.57C137.6,141.8,134.56,141.28,132.26,141.28Z"/><path class="cls-1" d="M160.41,141.44c-4,0-5.8,3.24-5.8,10.51s1.78,10.34,5.73,10.34,5.8-3.23,5.8-10.5S164.36,141.44,160.41,141.44Z"/><path class="cls-1" d="M81.42,140.78a.2.2,0,0,0-.39,0c-.1.45-.23,1.05-.44,1.85L78.25,152a.2.2,0,0,0,.19.25H84a.19.19,0,0,0,.19-.25l-2.34-9.38C81.66,141.85,81.52,141.24,81.42,140.78Z"/><path class="cls-1" d="M107.92,141.28c-.36,0-.68,0-1,0a.75.75,0,0,0-.71.75v9.12a.76.76,0,0,0,.72.75l1.14,0c4.93,0,5.13-3.48,5.13-5.57C113.25,141.8,110.21,141.28,107.92,141.28Z"/><path class="cls-1" d="M213.78,141.44c-4,0-5.81,3.24-5.81,10.51s1.78,10.34,5.73,10.34,5.8-3.23,5.8-10.5S217.73,141.44,213.78,141.44Z"/><path class="cls-1" d="M185.39,141.24l-.82,0a.75.75,0,0,0-.72.75v7.7a.74.74,0,0,0,.72.75c.25,0,.57,0,1,0a7.69,7.69,0,0,0,2.17-.27c1.66-.4,2.84-1.7,2.84-4.39C190.56,142,188.55,141.24,185.39,141.24Z"/><path class="cls-1" d="M181.42,117.29c-47.82,0-91,7.44-121.93,19.42a.38.38,0,0,0,.14.74,18.25,18.25,0,0,1,7.15,1.15h0s-.08,1-.08,3.2.07,3.47.08,3.62h0c-1.58-2.29-3.55-3.86-6.67-3.86-2.56,0-4.22.71-4.22,2.76,0,1.86,1.34,2.49,3.47,3.68l2.81,1.54c3.43,1.85,5.68,3.91,5.68,8.25,0,6.52-4.69,8.34-10.7,8.34-5.08,0-7.57-1.18-7.58-1.19h0s.08-.92.08-3.08-.07-3.66-.08-3.82h0a7.94,7.94,0,0,0,7.1,3.94c2.64,0,4.78-.59,4.78-3.12,0-2-1.27-2.69-3.16-3.71l-3.24-1.82c-3.08-1.7-5.53-3.83-5.53-7.9a8.16,8.16,0,0,1,1-4.2.38.38,0,0,0-.48-.55C25.86,151.76,11.34,166,11.34,181.42c0,35.41,76.15,64.13,170.08,64.13,52.36,0,99.19-8.93,130.39-23a.33.33,0,0,0-.19-.63,42.72,42.72,0,0,1-5.12.29c-8.92,0-12.69-2.08-12.69-2.08s.6-1.59,1.68-5.39c1.18-4.15,1.78-6.71,1.78-6.71,1.41,3.53,3.76,6.92,10.47,6.92,4.64,0,8.67-1,9.93-5.47,1-3.46-.87-4.7-3.68-6.5l-4.76-3.18c-4.55-3-7.77-6.71-5.74-13.84,2.67-9.33,10.14-14,21.7-14,8.23,0,11.94,2,11.94,2s-.61,1.66-1.73,5.6-1.68,6.36-1.68,6.36c-1.62-4-4.29-6.77-9.76-6.77-4.49,0-7.75,1.24-8.78,4.84-.93,3.25,1.11,4.36,4.25,6.43l4.14,2.7c5.09,3.25,8,6.85,5.84,14.45a21.23,21.23,0,0,1-2.81,6.18.45.45,0,0,0,.61.63c15.42-9.65,24.29-21,24.29-33C351.5,146,275.35,117.29,181.42,117.29Zm32.28,20.08c8.81,0,13.27,5.14,13.27,14.1,0,7.63-3.56,14.89-13.19,14.89-8.81,0-13.27-5.13-13.27-14.1C200.51,144.64,204.06,137.37,213.7,137.37ZM96,165.89c-.17,0-2.22-.08-5.25-.08-2.75,0-5,.07-5.24.08h0a2.8,2.8,0,0,0,1.25-2.48,28.31,28.31,0,0,0-1.1-5.49l-.32-1.22a.59.59,0,0,0-.57-.44H77.65a.59.59,0,0,0-.57.44l-.32,1.22a29.07,29.07,0,0,0-1.14,5.49,2.8,2.8,0,0,0,1.25,2.48h0c-.17,0-1.93-.08-4.45-.08s-4.11.07-4.26.08h0c1.46-1.42,2.17-3.87,3.74-9.35l4.66-16.47a5.94,5.94,0,0,0,.24-1.46,1.17,1.17,0,0,0-.27-.83H88.18a1.38,1.38,0,0,0-.24.83,5.91,5.91,0,0,0,.2,1.46l4.3,16.47c1.46,5.52,2.13,7.93,3.59,9.35Zm13.15-10.27a18.89,18.89,0,0,1-2.92-.24h0c0,7.5.2,8.29,1.07,9.79l.43.7h0c-.12,0-1.56-.08-4.86-.08s-4.7.07-4.81.08h0l.35-.66c.79-1.46,1-1.78,1-13.63,0-11.49-.16-11.65-1-13.23l-.35-.66h0c.1,0,1.5.08,3.75.08,1.74,0,5-.12,6.28-.12,4.54,0,12.32.28,12.32,8.61C120.44,154.28,114.12,155.62,109.18,155.62Zm24.35,0a18.74,18.74,0,0,1-2.92-.24h0c0,7.5.19,8.29,1.06,9.79l.43.7h0c-.11,0-1.56-.08-4.85-.08s-4.71.07-4.81.08h0l.36-.66c.79-1.46,1-1.78,1-13.63,0-11.49-.15-11.65-1-13.23l-.36-.66h0c.09,0,1.49.08,3.74.08,1.74,0,5-.12,6.28-.12,4.54,0,12.32.28,12.32,8.61C144.78,154.28,138.47,155.62,133.53,155.62Zm26.88,10.74c-8.8,0-13.27-5.13-13.27-14.1,0-7.62,3.56-14.89,13.2-14.89,8.8,0,13.27,5.14,13.27,14.1C173.61,159.1,170.05,166.36,160.41,166.36ZM188.16,158c-1.82-3.2-2.18-4-3.72-4a4.51,4.51,0,0,0-.59,0h0c0,9.52.2,9.72,1,11.18l.35.66h0c-.11,0-1.54-.08-4.62-.08s-4.55.07-4.65.08h0l.35-.66c.79-1.42,1-1.78,1-13.63,0-11.49-.15-11.65-1-13.23l-.35-.66h0c.1,0,1.64.08,3.66.08,1.31,0,4.43-.08,5.73-.08,6.2,0,12.28.28,12.28,7.27,0,5.74-4.3,7.6-8,7.73h0c2.93.41,4.15,1.71,5.8,4.89l2.17,4.23c1.07,2,1.74,3,3.16,3.59h0c-.06.06-.81.71-3.87.71-3.27,0-4.7-.91-6.59-4.35Zm43,63.67c-5.33,0-8,.13-8,.13l2-33.06a28.39,28.39,0,0,1,.62-4.84c-.17.35-.89,2.14-2.23,4.91l-16.33,33s-2.66-.13-8-.13-8.27.13-8.27.13l1.11-33c.29-9.75.09-13.9-1.83-16.39,0,0,2.87.14,9,.14,6.64,0,9.86-.14,9.86-.14a7.06,7.06,0,0,0-3.46,4.36c-.69,2.42-.92,6.36-1.36,11.55l-1.73,23.51c-.14,1.73-.4,3.6-.47,4.08a37,37,0,0,1,1.91-4l19.49-39.49s2.39.14,6.67.14,6.89-.14,6.89-.14l-2.51,38.87c-.12,1.87-.44,4.7-.44,4.7s1.18-2.69,2.17-4.7l11.46-23c2.59-5.19,4.54-9.13,5.23-11.55s-.25-3.74-1-4.36c0,0,2.8.14,8.19.14s7.86-.14,7.86-.14c-3.27,2.49-5.84,6.64-11.11,16.39l-18,33S236.66,221.7,231.2,221.7Zm68.93-44.27c-1,3.59-1.38,5.32-1.42,5.46a5.72,5.72,0,0,0-1.89-1.87c-1.38-1-3.92-1.52-7.17-1.52h-7.34l-4,14H284c3.25,0,6-.34,8-1.31a15.39,15.39,0,0,0,3-1.8c0,.07-.78,2-2.13,6.71-1.24,4.36-1.62,6.43-1.66,6.57a6.75,6.75,0,0,0-2-1.87c-1.38-1-4-1.31-7.23-1.31h-5.68l-4.06,14.25h6.64c8.58,0,10.26-2,13.88-5.74,0,0-1.13,2.76-3.64,10.1l-.89,2.62h-27c-3.74,0-5.35.07-5.35.07l1-1.17c2.11-2.56,2.61-3.11,8.53-23.86,5.75-20.13,5.55-20.41,4.89-23.18l-.29-1.17s1.5.07,5.24.07H301.6S301.1,174,300.13,177.43Z"/><path class="cls-2" d="M236.35,160.79l.15-.48,1.36-4.18,1-3.14a.11.11,0,0,0-.06-.16l-3.55-2.58-3-2.18a.16.16,0,0,1-.07-.07.22.22,0,0,1,.11,0h8c.16,0,.16,0,.2-.15.46-1.39.91-2.78,1.36-4.18.38-1.14.75-2.29,1.12-3.44a.69.69,0,0,1,.05-.13s0,.08.06.12l1.56,4.8c.31.94.61,1.89.92,2.83,0,.15,0,.15.21.15h8a.21.21,0,0,1,.13,0c-.1.06-.18.13-.27.19l-4.41,3.2-2,1.44a.11.11,0,0,0-.05.14c.3.91.6,1.83.89,2.74l1.62,5s0,0,0,.08-.05,0-.07,0l-3.4-2.47-3.17-2.3a.12.12,0,0,0-.17,0l-2.84,2.07-3.72,2.7S236.4,160.8,236.35,160.79Z"/></svg>