<svg xmlns="http://www.w3.org/2000/svg" viewBox="0 0 1027.79 387.53"><defs><style>.cls-1{fill:#dc0000;}.cls-2{fill:#fea900;}</style></defs><title>figure_アセット 1</title><g id="レイヤー_2" data-name="レイヤー 2"><g id="Service"><path class="cls-1" d="M365.38,72.5c-1.09,0-2.07,0-2.87.07a2.26,2.26,0,0,0-2.14,2.27v27.55a2.27,2.27,0,0,0,2.18,2.27c.82,0,1.94.06,3.43.06,14.91,0,15.51-10.51,15.51-16.83C381.49,74.05,372.3,72.5,365.38,72.5Z"/><path class="cls-1" d="M450.43,73c-12.05,0-17.54,9.79-17.54,31.75S438.26,136,450.19,136s17.55-9.78,17.55-31.74S462.37,73,450.43,73Z"/><path class="cls-1" d="M211.75,71a.61.61,0,0,0-1.19,0c-.28,1.36-.7,3.18-1.3,5.57l-7.09,28.36a.61.61,0,0,0,.59.76h16.81a.61.61,0,0,0,.59-.76l-7.09-28.36C212.48,74.22,212.05,72.37,211.75,71Z"/><path class="cls-1" d="M291.82,72.5c-1.08,0-2.07,0-2.87.07a2.27,2.27,0,0,0-2.14,2.27v27.55a2.27,2.27,0,0,0,2.18,2.27c.82,0,1.94.06,3.43.06,14.91,0,15.51-10.51,15.51-16.83C307.93,74.05,298.74,72.5,291.82,72.5Z"/><path class="cls-1" d="M611.67,73c-12,0-17.54,9.79-17.54,31.75S599.5,136,611.43,136,629,126.2,629,104.24,623.6,73,611.67,73Z"/><path class="cls-1" d="M525.9,72.38c-1,0-1.82,0-2.49.05a2.27,2.27,0,0,0-2.16,2.27V98a2.26,2.26,0,0,0,2.16,2.27c.76,0,1.74.06,3,.06a23.41,23.41,0,0,0,6.56-.84c5-1.19,8.59-5.13,8.59-13.24C541.53,74.64,535.45,72.38,525.9,72.38Z"/><path class="cls-1" d="M513.89,0c-144.48,0-275,22.48-368.4,58.68a1.16,1.16,0,0,0,.43,2.24c14.15,0,21.54,3.44,21.59,3.46h0s-.23,2.9-.23,9.67c0,6.61.21,10.49.23,10.93,0,0,0,0,0,0-4.77-6.9-10.73-11.66-20.15-11.66-7.75,0-12.76,2.15-12.76,8.35,0,5.61,4.06,7.52,10.5,11.1l8.47,4.66c10.38,5.61,17.18,11.81,17.18,24.94,0,19.69-14.2,25.18-32.34,25.18-15.34,0-22.86-3.56-22.91-3.58h0s.24-2.79.24-9.31c0-6.75-.21-11.07-.24-11.53,0,0,0,0,0,0,4.17,6.07,9.9,11.9,21.45,11.9,8,0,14.44-1.79,14.44-9.43,0-6-3.82-8.12-9.54-11.22l-9.79-5.49c-9.31-5.13-16.71-11.57-16.71-23.86a24.7,24.7,0,0,1,3.06-12.7A1.14,1.14,0,0,0,117,70.69C43.89,104.16,0,147,0,193.76c0,107,230.08,193.77,513.89,193.77,158.21,0,299.71-27,394-69.35a1,1,0,0,0-.55-1.92,128.33,128.33,0,0,1-15.48.88c-27,0-38.34-6.27-38.34-6.27s1.79-4.81,5.07-16.3c3.58-12.54,5.36-20.28,5.36-20.28,4.28,10.66,11.39,20.9,31.66,20.9,14,0,26.18-3.13,30-16.51,3-10.45-2.63-14.21-11.12-19.64l-14.39-9.62c-13.74-9-23.48-20.27-17.34-41.8,8-28.21,30.65-42.21,65.55-42.21,24.87,0,36.1,6.06,36.1,6.06s-1.85,5-5.25,16.93c-3.52,12.33-5.06,19.22-5.06,19.22-4.91-12.12-13-20.48-29.48-20.48-13.59,0-23.44,3.77-26.54,14.63-2.8,9.83,3.35,13.17,12.85,19.44l12.51,8.15c15.38,9.82,24.2,20.69,17.64,43.68a64.05,64.05,0,0,1-8.51,18.67,1.36,1.36,0,0,0,1.86,1.89c46.58-29.16,73.38-63.32,73.38-99.84C1027.79,86.75,797.71,0,513.89,0Zm97.54,60.68c26.61,0,40.1,15.52,40.1,42.6,0,23-10.74,45-39.86,45-26.61,0-40.09-15.51-40.09-42.6C571.58,82.64,582.31,60.68,611.43,60.68ZM255.88,146.84c-.51,0-6.69-.24-15.84-.24-8.33,0-15.24.22-15.83.24,0,0,0,0,0,0a8.43,8.43,0,0,0,3.79-7.5c0-3.7-1.55-9.54-3.34-16.58l-1-3.68a1.8,1.8,0,0,0-1.73-1.34H200.37a1.8,1.8,0,0,0-1.73,1.34l-1,3.68c-1.79,7-3.46,12.88-3.46,16.58a8.43,8.43,0,0,0,3.78,7.5s0,0,0,0c-.5,0-5.84-.24-13.45-.24-7.82,0-12.41.22-12.85.24,0,0,0,0,0,0,4.4-4.3,6.55-11.7,11.31-28.26L197.08,68.8a18,18,0,0,0,.72-4.42,3.42,3.42,0,0,0-.82-2.49s0,0,0,0h35.16l0,0a4.26,4.26,0,0,0-.72,2.49,17.92,17.92,0,0,0,.6,4.42l13,49.76c4.41,16.68,6.44,24,10.84,28.26C255.9,146.83,255.89,146.84,255.88,146.84Zm39.76-31a57,57,0,0,1-8.82-.72s0,0,0,0c0,22.65.6,25,3.22,29.57l1.3,2.13s0,0,0,0c-.34,0-4.69-.24-14.65-.24s-14.23.22-14.54.24c0,0,0,0,0,0l1.06-2c2.39-4.41,3-5.37,3-41.17,0-34.72-.48-35.2-3-40l-1.06-2s0,0,0,0c.29,0,4.53.23,11.32.23,5.25,0,15-.35,19-.35,13.72,0,37.23.83,37.23,26C329.65,111.76,310.56,115.82,295.64,115.82Zm73.56,0a57.34,57.34,0,0,1-8.83-.72v0c0,22.65.59,25,3.22,29.57l1.3,2.13s0,0,0,0c-.34,0-4.7-.24-14.66-.24s-14.22.22-14.54.24c0,0,0,0,0,0l1.06-2c2.39-4.41,3-5.37,3-41.17,0-34.72-.48-35.2-3-40l-1.06-2s0,0,0,0c.28,0,4.52.23,11.32.23,5.25,0,15-.35,19-.35,13.72,0,37.23.83,37.23,26C403.21,111.76,384.11,115.82,369.2,115.82Zm81.23,32.45c-26.61,0-40.09-15.51-40.09-42.6,0-23,10.74-45,39.85-45,26.62,0,40.1,15.52,40.1,42.6C490.29,126.32,479.55,148.27,450.43,148.27Zm83.82-25.18c-5.49-9.66-6.56-12.17-11.21-12.17a12,12,0,0,0-1.79.12s0,0,0,0c0,28.75.59,29.35,3,33.76l1.06,2s0,0,0,0c-.31,0-4.64-.24-13.94-.24s-13.75.22-14.06.24c0,0,0,0,0,0l1.06-2c2.39-4.29,3-5.37,3-41.17,0-34.72-.47-35.2-3-40l-1.06-2s0,0,0,0c.32,0,5,.23,11.09.23,3.93,0,13.36-.23,17.3-.23,18.74,0,37.11.83,37.11,22,0,17.35-13,23-24.08,23.39,0,0,0,0,0,0,8.85,1.22,12.53,5.17,17.52,14.78l6.56,12.77c3.22,6,5.25,8.94,9.53,10.85,0,0,0,0,0,0-.19.18-2.45,2.14-11.69,2.14-9.9,0-14.2-2.75-19.92-13.13Zm130,192.37c-16.09,0-24.16.42-24.16.42l6.14-99.9a86,86,0,0,1,1.88-14.63c-.51,1.05-2.69,6.48-6.75,14.84l-49.34,99.69s-8-.42-24.12-.42c-16.3,0-25,.42-25,.42l3.36-99.69c.88-29.46.28-42-5.52-49.53,0,0,8.66.42,27.26.42,20.07,0,29.8-.42,29.8-.42a21.36,21.36,0,0,0-10.44,13.17c-2.09,7.31-2.77,19.23-4.11,34.9l-5.22,71.06c-.45,5.22-1.22,10.87-1.43,12.33A107.58,107.58,0,0,1,582.42,286l58.91-119.34s7.2.42,20.16.42c13.16,0,20.81-.42,20.81-.42l-7.6,117.46c-.35,5.64-1.33,14.21-1.33,14.21s3.58-8.15,6.56-14.21l34.63-69.39c7.82-15.67,13.72-27.59,15.81-34.9,2.21-7.73-.75-11.29-2.93-13.17,0,0,8.45.42,24.75.42,16.09,0,23.74-.42,23.74-.42-9.88,7.53-17.64,20.07-33.57,49.53L688,315.88S680.81,315.46,664.3,315.46ZM872.58,181.71c-3.1,10.87-4.17,16.09-4.29,16.51-.15-.21-.87-2.09-5.71-5.64-4.18-2.93-11.85-4.6-21.67-4.6H818.75l-12.1,42.43h17.14c9.82,0,18.27-1,24.12-4,6.33-3.13,8.54-5,9.07-5.43-.06.21-2.35,6.06-6.41,20.27-3.75,13.17-4.91,19.44-5,19.86-.15-.21-1.08-2.09-5.92-5.65-4.18-2.92-12-4-21.86-4H800.63l-12.29,43.06h20.07c25.92,0,31-6.07,41.94-17.35,0,0-3.43,8.36-11,30.51l-2.69,7.94H754.94c-11.28,0-16.15.21-16.15.21l2.9-3.55c6.38-7.73,7.9-9.4,25.79-72.1,17.35-60.82,16.75-61.66,14.75-70l-.87-3.55s4.54.21,15.82.21H877S875.5,171.47,872.58,181.71Z"/><path class="cls-2" d="M679.87,131.44c.16-.5.3-1,.46-1.44q2.05-6.33,4.12-12.65,1.53-4.74,3.07-9.47a.37.37,0,0,0-.17-.5l-10.74-7.8L667.54,93a.5.5,0,0,1-.21-.2.71.71,0,0,1,.35,0H692c.46,0,.46,0,.6-.44l4.11-12.63,3.39-10.41a.79.79,0,0,1,.15-.37c.13.09.14.23.18.35q2.36,7.26,4.7,14.5c.93,2.85,1.85,5.7,2.78,8.55.15.45.14.45.63.45h24.26a.69.69,0,0,1,.39,0l-.8.6L719,103.08l-6,4.33a.32.32,0,0,0-.13.44c.9,2.75,1.79,5.51,2.68,8.26q2.46,7.55,4.9,15.08c0,.08.08.16,0,.26s-.15-.06-.21-.1l-10.27-7.47-9.58-7a.37.37,0,0,0-.51,0l-8.59,6.25-11.23,8.16A.35.35,0,0,1,679.87,131.44Z"/></g></g></svg>