<svg id="Layer" xmlns="http://www.w3.org/2000/svg" viewBox="0 0 362.83 362.83"><defs><style>.cls-1{fill:#fff;stroke:#000;stroke-miterlimit:10;stroke-width:8px;}</style></defs><title>figure_アートボード 6</title><circle class="cls-1" cx="181.42" cy="181.42" r="170.08"/><path d="M68.93,138.38l11.4,49.46,2.49,13.76,2.49-13.48,9.75-49.74h19l10.26,49.45L127,201.6l2.66-13.23,11.52-50h18.37l-24.3,86.37H118l-10.43-50.51-3-16.7-3,16.7L91,224.75H74.26L49.77,138.38Z"/><path d="M231.91,153.67h-45.7V172h41.95v15H186.21v22.21H234v15.53H168.57V138.38h63.34Z"/><path d="M258.69,198.09q.84,5.91,3.29,8.84,4.49,5.34,15.38,5.34A33.07,33.07,0,0,0,288,210.86q7.71-2.7,7.71-10a7.38,7.38,0,0,0-3.78-6.62q-3.78-2.28-12-4l-9.35-2.05q-13.79-3-18.94-6.62-8.73-6-8.73-18.7a24.82,24.82,0,0,1,8.54-19.27q8.55-7.68,25.09-7.68,13.81,0,23.58,7.24t10.23,21H293q-.48-7.78-7-11.07a23.8,23.8,0,0,0-10.75-2.17q-7.15,0-11.42,2.81a8.92,8.92,0,0,0-4.26,7.85,7.41,7.41,0,0,0,4.2,6.92c1.81,1,5.63,2.21,11.48,3.57l15.16,3.58q10,2.34,14.93,6.27,7.73,6.09,7.73,17.63a24.79,24.79,0,0,1-9.16,19.66Q294.76,227,278.06,227q-17.06,0-26.82-7.7t-9.78-21.18Z"/></svg>